<?xml version="1.0" encoding="UTF-8"?>
<svg
  viewBox="0 0 1200 860"
  width="1200"
  height="860"
  xmlns="http://www.w3.org/2000/svg"
  role="img"
  aria-label="Odontogramma SVG anatomico con arcata superiore e inferiore"
>
  <style>
    .bg {
      fill: #ffffff;
    }

    .title {
      font: 700 28px Arial, sans-serif;
      fill: #243447;
    }

    .subtitle {
      font: 16px Arial, sans-serif;
      fill: #607080;
    }

    .gum {
      fill: #fff2f2;
      stroke: #efc7c7;
      stroke-width: 2;
    }

    .arch-guide {
      fill: none;
      stroke: #b8c0ca;
      stroke-width: 3;
      stroke-linecap: round;
    }

    .arch-guide.inner {
      stroke-width: 2;
      stroke-dasharray: 9 8;
      opacity: .75;
    }

    .midline {
      stroke: #d8dde3;
      stroke-width: 1.6;
      stroke-dasharray: 6 7;
    }

    .tooth-outline {
      fill: #ffffff;
      stroke: #27384a;
      stroke-width: 2.6;
      vector-effect: non-scaling-stroke;
    }

    .detail-line {
      fill: none;
      stroke: #7e8a97;
      stroke-width: 1.7;
      stroke-linecap: round;
      vector-effect: non-scaling-stroke;
    }

    .tooth-label {
      font: 700 20px Arial, sans-serif;
      fill: #334155;
      pointer-events: none;
      user-select: none;
    }

    .tooth-node {
      cursor: pointer;
    }

    .tooth-node:hover .tooth-outline {
      fill: #edf7ff;
      stroke: #1976d2;
    }

    .tooth-node:hover .detail-line {
      stroke: #1976d2;
    }
  </style>

  <rect class="bg" x="0" y="0" width="1200" height="860"/>

  <text x="600" y="42" text-anchor="middle" class="title">Odontogramma SVG</text>
  <text x="600" y="68" text-anchor="middle" class="subtitle">Arcate anatomiche con numerazione FDI e denti cliccabili</text>

  <path d="M 130 360 C 150 190 315 78 500 58 C 565 50 635 50 700 58 C 885 78 1050 190 1070 360 L 975 350 C 955 240 850 162 700 145 C 635 138 565 138 500 145 C 350 162 245 240 225 350 Z" class="gum"/>
  <path d="M 130 500 C 150 670 315 782 500 802 C 565 810 635 810 700 802 C 885 782 1050 670 1070 500 L 975 510 C 955 620 850 698 700 715 C 635 722 565 722 500 715 C 350 698 245 620 225 510 Z" class="gum"/>

  <path d="M 130 360 C 150 190 315 78 500 58 C 565 50 635 50 700 58 C 885 78 1050 190 1070 360" class="arch-guide"/>
  <path d="M 225 350 C 245 240 350 162 500 145 C 565 138 635 138 700 145 C 850 162 955 240 975 350" class="arch-guide inner"/>
  <path d="M 130 500 C 150 670 315 782 500 802 C 565 810 635 810 700 802 C 885 782 1050 670 1070 500" class="arch-guide"/>
  <path d="M 225 510 C 245 620 350 698 500 715 C 565 722 635 722 700 715 C 850 698 955 620 975 510" class="arch-guide inner"/>

  <line x1="600" y1="82" x2="600" y2="792" class="midline"/>

  
      <g class="tooth-node" data-tooth-id="18" aria-label="Dente 18">
        <g transform="translate(168.6 291.6) rotate(-64) scale(0.88 1.0)">
          <path d="
      M -33 -34
      C -50 -30 -56 -10 -51 12
      L -41 42
      C -34 62 -13 68 0 56
      C 13 68 34 62 41 42
      L 51 12
      C 56 -10 50 -30 33 -34
      C 20 -39 9 -31 0 -34
      C -9 -31 -20 -39 -33 -34
      Z
    " class="tooth-outline"/>
          
      <path d="M -22 -4 C -10 -14 10 -14 22 -4" class="detail-line"/>
      <path d="M -24 18 C -10 31 10 31 24 18" class="detail-line"/>
      <path d="M 0 -22 L 0 40" class="detail-line"/>
      <path d="M -28 8 C -12 4 12 4 28 8" class="detail-line"/>
    
        </g>
        <text x="168.6" y="217.6" class="tooth-label" text-anchor="middle">18</text>
      </g>
    
      <g class="tooth-node" data-tooth-id="17" aria-label="Dente 17">
        <g transform="translate(221.8 243.8) rotate(-52) scale(0.88 1.0)">
          <path d="
      M -33 -34
      C -50 -30 -56 -10 -51 12
      L -41 42
      C -34 62 -13 68 0 56
      C 13 68 34 62 41 42
      L 51 12
      C 56 -10 50 -30 33 -34
      C 20 -39 9 -31 0 -34
      C -9 -31 -20 -39 -33 -34
      Z
    " class="tooth-outline"/>
          
      <path d="M -22 -4 C -10 -14 10 -14 22 -4" class="detail-line"/>
      <path d="M -24 18 C -10 31 10 31 24 18" class="detail-line"/>
      <path d="M 0 -22 L 0 40" class="detail-line"/>
      <path d="M -28 8 C -12 4 12 4 28 8" class="detail-line"/>
    
        </g>
        <text x="221.8" y="169.8" class="tooth-label" text-anchor="middle">17</text>
      </g>
    
      <g class="tooth-node" data-tooth-id="16" aria-label="Dente 16">
        <g transform="translate(291.5 203.2) rotate(-40) scale(0.88 1.0)">
          <path d="
      M -33 -34
      C -50 -30 -56 -10 -51 12
      L -41 42
      C -34 62 -13 68 0 56
      C 13 68 34 62 41 42
      L 51 12
      C 56 -10 50 -30 33 -34
      C 20 -39 9 -31 0 -34
      C -9 -31 -20 -39 -33 -34
      Z
    " class="tooth-outline"/>
          
      <path d="M -22 -4 C -10 -14 10 -14 22 -4" class="detail-line"/>
      <path d="M -24 18 C -10 31 10 31 24 18" class="detail-line"/>
      <path d="M 0 -22 L 0 40" class="detail-line"/>
      <path d="M -28 8 C -12 4 12 4 28 8" class="detail-line"/>
    
        </g>
        <text x="291.5" y="129.2" class="tooth-label" text-anchor="middle">16</text>
      </g>
    
      <g class="tooth-node" data-tooth-id="15" aria-label="Dente 15">
        <g transform="translate(374.7 171.6) rotate(-28) scale(0.88 1.0)">
          <path d="
      M -23 -32
      C -38 -26 -43 -9 -38 10
      L -29 38
      C -24 54 -8 61 0 53
      C 8 61 24 54 29 38
      L 38 10
      C 43 -9 38 -26 23 -32
      C 13 -37 -13 -37 -23 -32
      Z
    " class="tooth-outline"/>
          
      <path d="M -15 -3 C -7 -11 7 -11 15 -3" class="detail-line"/>
      <path d="M -16 18 C -7 27 7 27 16 18" class="detail-line"/>
      <path d="M 0 -20 L 0 35" class="detail-line"/>
    
        </g>
        <text x="374.7" y="97.6" class="tooth-label" text-anchor="middle">15</text>
      </g>
    
      <g class="tooth-node" data-tooth-id="14" aria-label="Dente 14">
        <g transform="translate(451.7 153.2) rotate(-18) scale(0.88 1.0)">
          <path d="
      M -23 -32
      C -38 -26 -43 -9 -38 10
      L -29 38
      C -24 54 -8 61 0 53
      C 8 61 24 54 29 38
      L 38 10
      C 43 -9 38 -26 23 -32
      C 13 -37 -13 -37 -23 -32
      Z
    " class="tooth-outline"/>
          
      <path d="M -15 -3 C -7 -11 7 -11 15 -3" class="detail-line"/>
      <path d="M -16 18 C -7 27 7 27 16 18" class="detail-line"/>
      <path d="M 0 -20 L 0 35" class="detail-line"/>
    
        </g>
        <text x="451.7" y="79.2" class="tooth-label" text-anchor="middle">14</text>
      </g>
    
      <g class="tooth-node" data-tooth-id="13" aria-label="Dente 13">
        <g transform="translate(516.6 144.1) rotate(-10) scale(0.92 1.0)">
          <path d="
      M 0 -42
      C -16 -35 -29 -23 -32 -6
      C -34 6 -27 27 -20 42
      C -15 54 -6 64 0 68
      C 6 64 15 54 20 42
      C 27 27 34 6 32 -6
      C 29 -23 16 -35 0 -42
      Z
    " class="tooth-outline"/>
          
      <path d="M 0 -27 C 0 -4 0 18 0 43" class="detail-line"/>
      <path d="M -12 6 C -4 1 4 1 12 6" class="detail-line"/>
    
        </g>
        <text x="516.6" y="70.1" class="tooth-label" text-anchor="middle">13</text>
      </g>
    
      <g class="tooth-node" data-tooth-id="12" aria-label="Dente 12">
        <g transform="translate(566.5 140.7) rotate(-4) scale(0.88 1.0)">
          <path d="
      M -18 -34
      C -28 -29 -32 -13 -28 4
      L -21 32
      C -17 49 -7 58 0 54
      C 7 58 17 49 21 32
      L 28 4
      C 32 -13 28 -29 18 -34
      C 8 -38 -8 -38 -18 -34
      Z
    " class="tooth-outline"/>
          
      <path d="M -7 -22 C -5 -3 -5 18 -7 35" class="detail-line"/>
      <path d="M 7 -22 C 5 -3 5 18 7 35" class="detail-line"/>
    
        </g>
        <text x="566.5" y="66.7" class="tooth-label" text-anchor="middle">12</text>
      </g>
    
      <g class="tooth-node" data-tooth-id="11" aria-label="Dente 11">
        <g transform="translate(591.6 140.0) rotate(-1) scale(0.88 1.0)">
          <path d="
      M -18 -34
      C -28 -29 -32 -13 -28 4
      L -21 32
      C -17 49 -7 58 0 54
      C 7 58 17 49 21 32
      L 28 4
      C 32 -13 28 -29 18 -34
      C 8 -38 -8 -38 -18 -34
      Z
    " class="tooth-outline"/>
          
      <path d="M -7 -22 C -5 -3 -5 18 -7 35" class="detail-line"/>
      <path d="M 7 -22 C 5 -3 5 18 7 35" class="detail-line"/>
    
        </g>
        <text x="591.6" y="66.0" class="tooth-label" text-anchor="middle">11</text>
      </g>
    
      <g class="tooth-node" data-tooth-id="21" aria-label="Dente 21">
        <g transform="translate(608.4 140.0) rotate(1) scale(0.88 1.0)">
          <path d="
      M -18 -34
      C -28 -29 -32 -13 -28 4
      L -21 32
      C -17 49 -7 58 0 54
      C 7 58 17 49 21 32
      L 28 4
      C 32 -13 28 -29 18 -34
      C 8 -38 -8 -38 -18 -34
      Z
    " class="tooth-outline"/>
          
      <path d="M -7 -22 C -5 -3 -5 18 -7 35" class="detail-line"/>
      <path d="M 7 -22 C 5 -3 5 18 7 35" class="detail-line"/>
    
        </g>
        <text x="608.4" y="66.0" class="tooth-label" text-anchor="middle">21</text>
      </g>
    
      <g class="tooth-node" data-tooth-id="22" aria-label="Dente 22">
        <g transform="translate(633.5 140.7) rotate(4) scale(0.88 1.0)">
          <path d="
      M -18 -34
      C -28 -29 -32 -13 -28 4
      L -21 32
      C -17 49 -7 58 0 54
      C 7 58 17 49 21 32
      L 28 4
      C 32 -13 28 -29 18 -34
      C 8 -38 -8 -38 -18 -34
      Z
    " class="tooth-outline"/>
          
      <path d="M -7 -22 C -5 -3 -5 18 -7 35" class="detail-line"/>
      <path d="M 7 -22 C 5 -3 5 18 7 35" class="detail-line"/>
    
        </g>
        <text x="633.5" y="66.7" class="tooth-label" text-anchor="middle">22</text>
      </g>
    
      <g class="tooth-node" data-tooth-id="23" aria-label="Dente 23">
        <g transform="translate(683.4 144.1) rotate(10) scale(0.92 1.0)">
          <path d="
      M 0 -42
      C -16 -35 -29 -23 -32 -6
      C -34 6 -27 27 -20 42
      C -15 54 -6 64 0 68
      C 6 64 15 54 20 42
      C 27 27 34 6 32 -6
      C 29 -23 16 -35 0 -42
      Z
    " class="tooth-outline"/>
          
      <path d="M 0 -27 C 0 -4 0 18 0 43" class="detail-line"/>
      <path d="M -12 6 C -4 1 4 1 12 6" class="detail-line"/>
    
        </g>
        <text x="683.4" y="70.1" class="tooth-label" text-anchor="middle">23</text>
      </g>
    
      <g class="tooth-node" data-tooth-id="24" aria-label="Dente 24">
        <g transform="translate(748.3 153.2) rotate(18) scale(0.88 1.0)">
          <path d="
      M -23 -32
      C -38 -26 -43 -9 -38 10
      L -29 38
      C -24 54 -8 61 0 53
      C 8 61 24 54 29 38
      L 38 10
      C 43 -9 38 -26 23 -32
      C 13 -37 -13 -37 -23 -32
      Z
    " class="tooth-outline"/>
          
      <path d="M -15 -3 C -7 -11 7 -11 15 -3" class="detail-line"/>
      <path d="M -16 18 C -7 27 7 27 16 18" class="detail-line"/>
      <path d="M 0 -20 L 0 35" class="detail-line"/>
    
        </g>
        <text x="748.3" y="79.2" class="tooth-label" text-anchor="middle">24</text>
      </g>
    
      <g class="tooth-node" data-tooth-id="25" aria-label="Dente 25">
        <g transform="translate(825.3 171.6) rotate(28) scale(0.88 1.0)">
          <path d="
      M -23 -32
      C -38 -26 -43 -9 -38 10
      L -29 38
      C -24 54 -8 61 0 53
      C 8 61 24 54 29 38
      L 38 10
      C 43 -9 38 -26 23 -32
      C 13 -37 -13 -37 -23 -32
      Z
    " class="tooth-outline"/>
          
      <path d="M -15 -3 C -7 -11 7 -11 15 -3" class="detail-line"/>
      <path d="M -16 18 C -7 27 7 27 16 18" class="detail-line"/>
      <path d="M 0 -20 L 0 35" class="detail-line"/>
    
        </g>
        <text x="825.3" y="97.6" class="tooth-label" text-anchor="middle">25</text>
      </g>
    
      <g class="tooth-node" data-tooth-id="26" aria-label="Dente 26">
        <g transform="translate(908.5 203.2) rotate(40) scale(0.88 1.0)">
          <path d="
      M -33 -34
      C -50 -30 -56 -10 -51 12
      L -41 42
      C -34 62 -13 68 0 56
      C 13 68 34 62 41 42
      L 51 12
      C 56 -10 50 -30 33 -34
      C 20 -39 9 -31 0 -34
      C -9 -31 -20 -39 -33 -34
      Z
    " class="tooth-outline"/>
          
      <path d="M -22 -4 C -10 -14 10 -14 22 -4" class="detail-line"/>
      <path d="M -24 18 C -10 31 10 31 24 18" class="detail-line"/>
      <path d="M 0 -22 L 0 40" class="detail-line"/>
      <path d="M -28 8 C -12 4 12 4 28 8" class="detail-line"/>
    
        </g>
        <text x="908.5" y="129.2" class="tooth-label" text-anchor="middle">26</text>
      </g>
    
      <g class="tooth-node" data-tooth-id="27" aria-label="Dente 27">
        <g transform="translate(978.2 243.8) rotate(52) scale(0.88 1.0)">
          <path d="
      M -33 -34
      C -50 -30 -56 -10 -51 12
      L -41 42
      C -34 62 -13 68 0 56
      C 13 68 34 62 41 42
      L 51 12
      C 56 -10 50 -30 33 -34
      C 20 -39 9 -31 0 -34
      C -9 -31 -20 -39 -33 -34
      Z
    " class="tooth-outline"/>
          
      <path d="M -22 -4 C -10 -14 10 -14 22 -4" class="detail-line"/>
      <path d="M -24 18 C -10 31 10 31 24 18" class="detail-line"/>
      <path d="M 0 -22 L 0 40" class="detail-line"/>
      <path d="M -28 8 C -12 4 12 4 28 8" class="detail-line"/>
    
        </g>
        <text x="978.2" y="169.8" class="tooth-label" text-anchor="middle">27</text>
      </g>
    
      <g class="tooth-node" data-tooth-id="28" aria-label="Dente 28">
        <g transform="translate(1031.4 291.6) rotate(64) scale(0.88 1.0)">
          <path d="
      M -33 -34
      C -50 -30 -56 -10 -51 12
      L -41 42
      C -34 62 -13 68 0 56
      C 13 68 34 62 41 42
      L 51 12
      C 56 -10 50 -30 33 -34
      C 20 -39 9 -31 0 -34
      C -9 -31 -20 -39 -33 -34
      Z
    " class="tooth-outline"/>
          
      <path d="M -22 -4 C -10 -14 10 -14 22 -4" class="detail-line"/>
      <path d="M -24 18 C -10 31 10 31 24 18" class="detail-line"/>
      <path d="M 0 -22 L 0 40" class="detail-line"/>
      <path d="M -28 8 C -12 4 12 4 28 8" class="detail-line"/>
    
        </g>
        <text x="1031.4" y="217.6" class="tooth-label" text-anchor="middle">28</text>
      </g>
    
      <g class="tooth-node" data-tooth-id="48" aria-label="Dente 48">
        <g transform="translate(168.6 568.4) rotate(-64) scale(0.88 -1.0)">
          <path d="
      M -33 -34
      C -50 -30 -56 -10 -51 12
      L -41 42
      C -34 62 -13 68 0 56
      C 13 68 34 62 41 42
      L 51 12
      C 56 -10 50 -30 33 -34
      C 20 -39 9 -31 0 -34
      C -9 -31 -20 -39 -33 -34
      Z
    " class="tooth-outline"/>
          
      <path d="M -22 -4 C -10 -14 10 -14 22 -4" class="detail-line"/>
      <path d="M -24 18 C -10 31 10 31 24 18" class="detail-line"/>
      <path d="M 0 -22 L 0 40" class="detail-line"/>
      <path d="M -28 8 C -12 4 12 4 28 8" class="detail-line"/>
    
        </g>
        <text x="168.6" y="650.4" class="tooth-label" text-anchor="middle">48</text>
      </g>
    
      <g class="tooth-node" data-tooth-id="47" aria-label="Dente 47">
        <g transform="translate(221.8 616.2) rotate(-52) scale(0.88 -1.0)">
          <path d="
      M -33 -34
      C -50 -30 -56 -10 -51 12
      L -41 42
      C -34 62 -13 68 0 56
      C 13 68 34 62 41 42
      L 51 12
      C 56 -10 50 -30 33 -34
      C 20 -39 9 -31 0 -34
      C -9 -31 -20 -39 -33 -34
      Z
    " class="tooth-outline"/>
          
      <path d="M -22 -4 C -10 -14 10 -14 22 -4" class="detail-line"/>
      <path d="M -24 18 C -10 31 10 31 24 18" class="detail-line"/>
      <path d="M 0 -22 L 0 40" class="detail-line"/>
      <path d="M -28 8 C -12 4 12 4 28 8" class="detail-line"/>
    
        </g>
        <text x="221.8" y="698.2" class="tooth-label" text-anchor="middle">47</text>
      </g>
    
      <g class="tooth-node" data-tooth-id="46" aria-label="Dente 46">
        <g transform="translate(291.5 656.8) rotate(-40) scale(0.88 -1.0)">
          <path d="
      M -33 -34
      C -50 -30 -56 -10 -51 12
      L -41 42
      C -34 62 -13 68 0 56
      C 13 68 34 62 41 42
      L 51 12
      C 56 -10 50 -30 33 -34
      C 20 -39 9 -31 0 -34
      C -9 -31 -20 -39 -33 -34
      Z
    " class="tooth-outline"/>
          
      <path d="M -22 -4 C -10 -14 10 -14 22 -4" class="detail-line"/>
      <path d="M -24 18 C -10 31 10 31 24 18" class="detail-line"/>
      <path d="M 0 -22 L 0 40" class="detail-line"/>
      <path d="M -28 8 C -12 4 12 4 28 8" class="detail-line"/>
    
        </g>
        <text x="291.5" y="738.8" class="tooth-label" text-anchor="middle">46</text>
      </g>
    
      <g class="tooth-node" data-tooth-id="45" aria-label="Dente 45">
        <g transform="translate(374.7 688.4) rotate(-28) scale(0.88 -1.0)">
          <path d="
      M -23 -32
      C -38 -26 -43 -9 -38 10
      L -29 38
      C -24 54 -8 61 0 53
      C 8 61 24 54 29 38
      L 38 10
      C 43 -9 38 -26 23 -32
      C 13 -37 -13 -37 -23 -32
      Z
    " class="tooth-outline"/>
          
      <path d="M -15 -3 C -7 -11 7 -11 15 -3" class="detail-line"/>
      <path d="M -16 18 C -7 27 7 27 16 18" class="detail-line"/>
      <path d="M 0 -20 L 0 35" class="detail-line"/>
    
        </g>
        <text x="374.7" y="770.4" class="tooth-label" text-anchor="middle">45</text>
      </g>
    
      <g class="tooth-node" data-tooth-id="44" aria-label="Dente 44">
        <g transform="translate(451.7 706.8) rotate(-18) scale(0.88 -1.0)">
          <path d="
      M -23 -32
      C -38 -26 -43 -9 -38 10
      L -29 38
      C -24 54 -8 61 0 53
      C 8 61 24 54 29 38
      L 38 10
      C 43 -9 38 -26 23 -32
      C 13 -37 -13 -37 -23 -32
      Z
    " class="tooth-outline"/>
          
      <path d="M -15 -3 C -7 -11 7 -11 15 -3" class="detail-line"/>
      <path d="M -16 18 C -7 27 7 27 16 18" class="detail-line"/>
      <path d="M 0 -20 L 0 35" class="detail-line"/>
    
        </g>
        <text x="451.7" y="788.8" class="tooth-label" text-anchor="middle">44</text>
      </g>
    
      <g class="tooth-node" data-tooth-id="43" aria-label="Dente 43">
        <g transform="translate(516.6 715.9) rotate(-10) scale(0.92 -1.0)">
          <path d="
      M 0 -42
      C -16 -35 -29 -23 -32 -6
      C -34 6 -27 27 -20 42
      C -15 54 -6 64 0 68
      C 6 64 15 54 20 42
      C 27 27 34 6 32 -6
      C 29 -23 16 -35 0 -42
      Z
    " class="tooth-outline"/>
          
      <path d="M 0 -27 C 0 -4 0 18 0 43" class="detail-line"/>
      <path d="M -12 6 C -4 1 4 1 12 6" class="detail-line"/>
    
        </g>
        <text x="516.6" y="797.9" class="tooth-label" text-anchor="middle">43</text>
      </g>
    
      <g class="tooth-node" data-tooth-id="42" aria-label="Dente 42">
        <g transform="translate(566.5 719.3) rotate(-4) scale(0.88 -1.0)">
          <path d="
      M -18 -34
      C -28 -29 -32 -13 -28 4
      L -21 32
      C -17 49 -7 58 0 54
      C 7 58 17 49 21 32
      L 28 4
      C 32 -13 28 -29 18 -34
      C 8 -38 -8 -38 -18 -34
      Z
    " class="tooth-outline"/>
          
      <path d="M -7 -22 C -5 -3 -5 18 -7 35" class="detail-line"/>
      <path d="M 7 -22 C 5 -3 5 18 7 35" class="detail-line"/>
    
        </g>
        <text x="566.5" y="801.3" class="tooth-label" text-anchor="middle">42</text>
      </g>
    
      <g class="tooth-node" data-tooth-id="41" aria-label="Dente 41">
        <g transform="translate(591.6 720.0) rotate(-1) scale(0.88 -1.0)">
          <path d="
      M -18 -34
      C -28 -29 -32 -13 -28 4
      L -21 32
      C -17 49 -7 58 0 54
      C 7 58 17 49 21 32
      L 28 4
      C 32 -13 28 -29 18 -34
      C 8 -38 -8 -38 -18 -34
      Z
    " class="tooth-outline"/>
          
      <path d="M -7 -22 C -5 -3 -5 18 -7 35" class="detail-line"/>
      <path d="M 7 -22 C 5 -3 5 18 7 35" class="detail-line"/>
    
        </g>
        <text x="591.6" y="802.0" class="tooth-label" text-anchor="middle">41</text>
      </g>
    
      <g class="tooth-node" data-tooth-id="31" aria-label="Dente 31">
        <g transform="translate(608.4 720.0) rotate(1) scale(0.88 -1.0)">
          <path d="
      M -18 -34
      C -28 -29 -32 -13 -28 4
      L -21 32
      C -17 49 -7 58 0 54
      C 7 58 17 49 21 32
      L 28 4
      C 32 -13 28 -29 18 -34
      C 8 -38 -8 -38 -18 -34
      Z
    " class="tooth-outline"/>
          
      <path d="M -7 -22 C -5 -3 -5 18 -7 35" class="detail-line"/>
      <path d="M 7 -22 C 5 -3 5 18 7 35" class="detail-line"/>
    
        </g>
        <text x="608.4" y="802.0" class="tooth-label" text-anchor="middle">31</text>
      </g>
    
      <g class="tooth-node" data-tooth-id="32" aria-label="Dente 32">
        <g transform="translate(633.5 719.3) rotate(4) scale(0.88 -1.0)">
          <path d="
      M -18 -34
      C -28 -29 -32 -13 -28 4
      L -21 32
      C -17 49 -7 58 0 54
      C 7 58 17 49 21 32
      L 28 4
      C 32 -13 28 -29 18 -34
      C 8 -38 -8 -38 -18 -34
      Z
    " class="tooth-outline"/>
          
      <path d="M -7 -22 C -5 -3 -5 18 -7 35" class="detail-line"/>
      <path d="M 7 -22 C 5 -3 5 18 7 35" class="detail-line"/>
    
        </g>
        <text x="633.5" y="801.3" class="tooth-label" text-anchor="middle">32</text>
      </g>
    
      <g class="tooth-node" data-tooth-id="33" aria-label="Dente 33">
        <g transform="translate(683.4 715.9) rotate(10) scale(0.92 -1.0)">
          <path d="
      M 0 -42
      C -16 -35 -29 -23 -32 -6
      C -34 6 -27 27 -20 42
      C -15 54 -6 64 0 68
      C 6 64 15 54 20 42
      C 27 27 34 6 32 -6
      C 29 -23 16 -35 0 -42
      Z
    " class="tooth-outline"/>
          
      <path d="M 0 -27 C 0 -4 0 18 0 43" class="detail-line"/>
      <path d="M -12 6 C -4 1 4 1 12 6" class="detail-line"/>
    
        </g>
        <text x="683.4" y="797.9" class="tooth-label" text-anchor="middle">33</text>
      </g>
    
      <g class="tooth-node" data-tooth-id="34" aria-label="Dente 34">
        <g transform="translate(748.3 706.8) rotate(18) scale(0.88 -1.0)">
          <path d="
      M -23 -32
      C -38 -26 -43 -9 -38 10
      L -29 38
      C -24 54 -8 61 0 53
      C 8 61 24 54 29 38
      L 38 10
      C 43 -9 38 -26 23 -32
      C 13 -37 -13 -37 -23 -32
      Z
    " class="tooth-outline"/>
          
      <path d="M -15 -3 C -7 -11 7 -11 15 -3" class="detail-line"/>
      <path d="M -16 18 C -7 27 7 27 16 18" class="detail-line"/>
      <path d="M 0 -20 L 0 35" class="detail-line"/>
    
        </g>
        <text x="748.3" y="788.8" class="tooth-label" text-anchor="middle">34</text>
      </g>
    
      <g class="tooth-node" data-tooth-id="35" aria-label="Dente 35">
        <g transform="translate(825.3 688.4) rotate(28) scale(0.88 -1.0)">
          <path d="
      M -23 -32
      C -38 -26 -43 -9 -38 10
      L -29 38
      C -24 54 -8 61 0 53
      C 8 61 24 54 29 38
      L 38 10
      C 43 -9 38 -26 23 -32
      C 13 -37 -13 -37 -23 -32
      Z
    " class="tooth-outline"/>
          
      <path d="M -15 -3 C -7 -11 7 -11 15 -3" class="detail-line"/>
      <path d="M -16 18 C -7 27 7 27 16 18" class="detail-line"/>
      <path d="M 0 -20 L 0 35" class="detail-line"/>
    
        </g>
        <text x="825.3" y="770.4" class="tooth-label" text-anchor="middle">35</text>
      </g>
    
      <g class="tooth-node" data-tooth-id="36" aria-label="Dente 36">
        <g transform="translate(908.5 656.8) rotate(40) scale(0.88 -1.0)">
          <path d="
      M -33 -34
      C -50 -30 -56 -10 -51 12
      L -41 42
      C -34 62 -13 68 0 56
      C 13 68 34 62 41 42
      L 51 12
      C 56 -10 50 -30 33 -34
      C 20 -39 9 -31 0 -34
      C -9 -31 -20 -39 -33 -34
      Z
    " class="tooth-outline"/>
          
      <path d="M -22 -4 C -10 -14 10 -14 22 -4" class="detail-line"/>
      <path d="M -24 18 C -10 31 10 31 24 18" class="detail-line"/>
      <path d="M 0 -22 L 0 40" class="detail-line"/>
      <path d="M -28 8 C -12 4 12 4 28 8" class="detail-line"/>
    
        </g>
        <text x="908.5" y="738.8" class="tooth-label" text-anchor="middle">36</text>
      </g>
    
      <g class="tooth-node" data-tooth-id="37" aria-label="Dente 37">
        <g transform="translate(978.2 616.2) rotate(52) scale(0.88 -1.0)">
          <path d="
      M -33 -34
      C -50 -30 -56 -10 -51 12
      L -41 42
      C -34 62 -13 68 0 56
      C 13 68 34 62 41 42
      L 51 12
      C 56 -10 50 -30 33 -34
      C 20 -39 9 -31 0 -34
      C -9 -31 -20 -39 -33 -34
      Z
    " class="tooth-outline"/>
          
      <path d="M -22 -4 C -10 -14 10 -14 22 -4" class="detail-line"/>
      <path d="M -24 18 C -10 31 10 31 24 18" class="detail-line"/>
      <path d="M 0 -22 L 0 40" class="detail-line"/>
      <path d="M -28 8 C -12 4 12 4 28 8" class="detail-line"/>
    
        </g>
        <text x="978.2" y="698.2" class="tooth-label" text-anchor="middle">37</text>
      </g>
    
      <g class="tooth-node" data-tooth-id="38" aria-label="Dente 38">
        <g transform="translate(1031.4 568.4) rotate(64) scale(0.88 -1.0)">
          <path d="
      M -33 -34
      C -50 -30 -56 -10 -51 12
      L -41 42
      C -34 62 -13 68 0 56
      C 13 68 34 62 41 42
      L 51 12
      C 56 -10 50 -30 33 -34
      C 20 -39 9 -31 0 -34
      C -9 -31 -20 -39 -33 -34
      Z
    " class="tooth-outline"/>
          
      <path d="M -22 -4 C -10 -14 10 -14 22 -4" class="detail-line"/>
      <path d="M -24 18 C -10 31 10 31 24 18" class="detail-line"/>
      <path d="M 0 -22 L 0 40" class="detail-line"/>
      <path d="M -28 8 C -12 4 12 4 28 8" class="detail-line"/>
    
        </g>
        <text x="1031.4" y="650.4" class="tooth-label" text-anchor="middle">38</text>
      </g>
    
</svg>
